<svg id="Rough_2" data-name="Rough 2" xmlns="http://www.w3.org/2000/svg" viewBox="0 0 40.7 51.9"><defs><style>.cls-1{fill:none;stroke:#000;stroke-miterlimit:10;stroke-width:1.6px;}</style></defs><path id="Shield" d="M-29.4,318.5a23.6,23.6,0,0,1-10.5-2.3,22.5,22.5,0,0,1-6.6-4.6,24.7,24.7,0,0,1-6.7,4.6,23.6,23.6,0,0,1-10.5,2.3,37.5,37.5,0,0,0-.1,4.9,41.8,41.8,0,0,0,.4,5.8c.6,5.4,1.3,10.9,4.9,16.2a25.9,25.9,0,0,0,4.7,5.3,36.1,36.1,0,0,0,7.3,5.2,39.1,39.1,0,0,0,7.3-5.2,33.7,33.7,0,0,0,4.7-5.3c3.5-5.3,4.2-10.8,4.9-16.2.3-2.8.4-5.2.4-5.8S-29.3,319.8-29.4,318.5Z" transform="translate(66.9 -307.2)"/><path id="Outline" class="cls-1" d="M-27.2,316.2A27.6,27.6,0,0,1-39,313.6a26,26,0,0,1-7.5-5.2,27.5,27.5,0,0,1-7.5,5.2,28,28,0,0,1-11.9,2.6c-.1,1.5-.2,3.3-.2,5.5a60.9,60.9,0,0,0,.5,6.5c.7,6,1.5,12.2,5.5,18.2a34,34,0,0,0,5.3,6,40.7,40.7,0,0,0,8.3,5.9,40.5,40.5,0,0,0,8.2-5.9,34,34,0,0,0,5.3-6c4-6,4.8-12.2,5.6-18.2a51.8,51.8,0,0,0,.4-6.5C-27,319.5-27.1,317.7-27.2,316.2Z" transform="translate(66.9 -307.2)"/></svg>