<svg id="Layer_1" data-name="Layer 1" xmlns="http://www.w3.org/2000/svg" viewBox="0 0 47 46.8"><path d="M-235.3,373.2l-1.3-1.1-.3-.3a10.5,10.5,0,0,1-.7,1.1c-6.5,6.9-13.1,13.7-19.7,20.5-.9,1-1.3,1-2.1,0s-1.9-1.5-2-2.4,1.1-1.7,1.7-2.5l15.5-20.8a3.5,3.5,0,0,1,2.2-1.4l13.9-2.9c1.3-.2,1.5,0,1.2,1.2q-1.3,7.2-3,14.4a3.1,3.1,0,0,1-1.1,1.5L-251.8,396l-1,.7c-1.6,1.3-1.6,1.3-3.2-.2s-2-1.8,0-3.7l19.6-18.7A5.9,5.9,0,0,1-235.3,373.2Z" transform="translate(273.8 -363.3)"/><path d="M-264.3,396.2l-4.5-4.4c-1-1-1-1.2.1-2.2l.8-.7c1.4-1.4,1.5-1.4,2.9,0l12.8,12.6c1.4,1.4,1.3,1.4-.1,2.8s-1.5,2.3-3.8-.1-2.3-2.3-3.5-3.5c-2.1,2.1-4.1,4-6.1,6.1-.3.3-.2.9-.3,1.4s-.2,1.7-.5,1.8-2,.3-2.6-.2a30.5,30.5,0,0,1-4.4-4.4,3,3,0,0,1-.1-2.3c.1-.3,1-.6,1.5-.5a2.7,2.7,0,0,0,2.5-1.1Z" transform="translate(273.8 -363.3)"/></svg>